<?xml version="1.0" encoding="utf-8"?>
<!-- Generator: Adobe Illustrator 19.0.0, SVG Export Plug-In . SVG Version: 6.00 Build 0)  -->
<svg version="1.1" id="Layer_1" xmlns="http://www.w3.org/2000/svg" xmlns:xlink="http://www.w3.org/1999/xlink" x="0px" y="0px"
	 viewBox="0 0 406.6 119.2" style="enable-background:new 0 0 406.6 119.2;" xml:space="preserve">
<style type="text/css">
	.st0{fill:#4B4345;}
	.st1{font-family:'Seravek';}
	.st2{font-size:91.4558px;}
	.st3{fill:#FB6542;}
</style>
<text id="XMLID_1_" transform="matrix(1 0 0 1 95.0602 79.3417)" class="st0 st1 st2">PIGEON</text>
<g id="XMLID_6_">
	<path id="XMLID_8_" class="st3" d="M88.8,95.7l-6.6-58.1C82.1,16.8,65.2,0,44.4,0S6.7,16.8,6.6,37.6L0,95.7c-0.1,1,0.2,1.9,0.9,2.7
		c0.7,0.7,1.6,1.1,2.6,1c0.1,0,6.8-0.5,12.9-0.5c4.3,0,6.4,0.2,7.4,0.4c5.2,0.9,15.2,7.5,18.7,9.9c0.6,0.4,1.2,0.6,1.9,0.6
		c0.7,0,1.3-0.2,1.9-0.6c3.3-2.4,13.1-8.7,18.2-9.7c1.2-0.2,3.6-0.5,8.7-0.5c5.9,0,12,0.4,12.1,0.4c1,0,1.9-0.3,2.6-1
		C88.5,97.7,88.9,96.7,88.8,95.7z M73.2,92.4c-4.6,0-7.9,0.2-10,0.6c-5.9,1.1-14.8,6.8-18.8,9.5C40.3,99.8,31.1,94,25,92.9
		c-1.9-0.3-4.7-0.5-8.6-0.5c-3.3,0-6.8,0.1-9.4,0.2l6.2-54.4c0-0.1,0-0.2,0-0.4c0-17.2,14-31.2,31.2-31.2c17.2,0,31.2,14,31.2,31.2
		c0,0.1,0,0.2,0,0.4l6.2,54.5C79.4,92.5,76.3,92.4,73.2,92.4z"/>
	<circle id="XMLID_14_" class="st3" cx="24.6" cy="35.9" r="5.9"/>
	<circle id="XMLID_13_" class="st3" cx="64.2" cy="35.9" r="5.9"/>
	<path id="XMLID_3_" class="st3" d="M44.4,82.6l14.7-38.2H29.7L44.4,82.6z M44.4,64.3l-5.1-13.2h10.2L44.4,64.3z"/>
</g>
<g id="XMLID_4_">
	<g id="XMLID_31_">
		<path id="XMLID_32_" class="st0" d="M295.3,41.4c-1.1,0-2-0.9-2-2c0-4.4,3.6-8,8-8c1.1,0,2,0.9,2,2s-0.9,2-2,2c-2.2,0-4,1.8-4,4
			C297.3,40.5,296.4,41.4,295.3,41.4z"/>
	</g>
</g>
<g id="XMLID_27_">
	<path id="XMLID_29_" class="st0" d="M118.5,96.4c0,1.7-0.4,3.1-1.3,4.1s-2,1.5-3.5,1.5c-0.9,0-1.8-0.2-2.5-0.7s-1.3-1.1-1.6-1.9
		s-0.6-1.8-0.6-2.9c0-1.7,0.4-3.1,1.3-4s2-1.5,3.5-1.5c1.5,0,2.6,0.5,3.4,1.5S118.5,94.7,118.5,96.4z M110.2,96.4
		c0,1.5,0.3,2.6,1,3.4s1.5,1.2,2.7,1.2s2.1-0.4,2.7-1.2s1-2,1-3.4c0-1.5-0.3-2.6-1-3.4s-1.6-1.2-2.7-1.2s-2.1,0.4-2.7,1.2
		S110.2,94.9,110.2,96.4z"/>
	<path id="XMLID_34_" class="st0" d="M128,101.9c-1.6,0-2.8-0.6-3.6-1.8h-0.1l0,0.8c0,0.5,0,1,0,1.6v4h-1V91.1h0.8l0.2,1.5h0.1
		c0.7-1.1,1.9-1.7,3.5-1.7c1.4,0,2.5,0.5,3.3,1.4s1.1,2.3,1.1,4.1c0,1.7-0.4,3.1-1.2,4.1S129.4,101.9,128,101.9z M128,101.1
		c1.1,0,1.9-0.4,2.5-1.2s0.9-1.9,0.9-3.4c0-3.1-1.1-4.7-3.4-4.7c-1.2,0-2.1,0.3-2.7,1s-0.9,1.8-0.9,3.3v0.3c0,1.7,0.3,2.8,0.8,3.6
		S126.7,101.1,128,101.1z"/>
	<path id="XMLID_37_" class="st0" d="M141.7,101.9c-1.5,0-2.7-0.5-3.6-1.4s-1.3-2.3-1.3-4c0-1.7,0.4-3,1.2-4.1s2-1.5,3.4-1.5
		c1.2,0,2.2,0.4,3,1.3s1.1,2.1,1.1,3.6v0.8h-7.6c0,1.5,0.4,2.6,1,3.3s1.6,1.2,2.9,1.2c0.6,0,1.1,0,1.6-0.1s1-0.3,1.7-0.5v0.9
		c-0.6,0.3-1.2,0.4-1.7,0.5S142.3,101.9,141.7,101.9z M141.4,91.8c-1,0-1.8,0.3-2.5,1s-1,1.6-1.1,2.9h6.6c0-1.2-0.3-2.2-0.8-2.9
		S142.3,91.8,141.4,91.8z"/>
	<path id="XMLID_40_" class="st0" d="M157.8,101.7v-6.9c0-1.1-0.2-1.8-0.7-2.3s-1.1-0.7-2.1-0.7c-1.3,0-2.2,0.3-2.8,1
		s-0.9,1.7-0.9,3.1v5.9h-1V91.1h0.8l0.2,1.5h0.1c0.7-1.1,1.9-1.7,3.7-1.7c2.4,0,3.6,1.3,3.6,3.9v6.9H157.8z"/>
	<path id="XMLID_42_" class="st0" d="M163.3,96.7v-0.8h4.6v0.8H163.3z"/>
	<path id="XMLID_44_" class="st0" d="M179.2,99c0,1-0.4,1.7-1.1,2.2s-1.7,0.8-3.1,0.8c-1.4,0-2.5-0.2-3.4-0.7v-1
		c1.1,0.5,2.2,0.8,3.4,0.8c1,0,1.8-0.2,2.4-0.5s0.8-0.8,0.8-1.4c0-0.5-0.2-1-0.6-1.3s-1.1-0.7-2.1-1.1c-1.1-0.4-1.8-0.7-2.2-1
		s-0.8-0.6-1-0.9s-0.3-0.8-0.3-1.3c0-0.8,0.3-1.4,1-1.9s1.6-0.7,2.8-0.7c1.1,0,2.2,0.2,3.3,0.6l-0.4,0.9c-1-0.4-2-0.6-2.9-0.6
		c-0.9,0-1.6,0.1-2.1,0.4s-0.8,0.7-0.8,1.2c0,0.6,0.2,1,0.6,1.3s1.2,0.7,2.3,1.1c1,0.3,1.7,0.7,2.1,0.9s0.8,0.6,1,0.9
		S179.2,98.5,179.2,99z"/>
	<path id="XMLID_46_" class="st0" d="M192.7,96.4c0,1.7-0.4,3.1-1.3,4.1s-2,1.5-3.5,1.5c-0.9,0-1.8-0.2-2.5-0.7s-1.3-1.1-1.6-1.9
		s-0.6-1.8-0.6-2.9c0-1.7,0.4-3.1,1.3-4s2-1.5,3.5-1.5c1.5,0,2.6,0.5,3.4,1.5S192.7,94.7,192.7,96.4z M184.3,96.4
		c0,1.5,0.3,2.6,1,3.4s1.5,1.2,2.7,1.2s2.1-0.4,2.7-1.2s1-2,1-3.4c0-1.5-0.3-2.6-1-3.4s-1.6-1.2-2.7-1.2s-2.1,0.4-2.7,1.2
		S184.3,94.9,184.3,96.4z"/>
	<path id="XMLID_49_" class="st0" d="M198.5,91.1V98c0,1.1,0.2,1.8,0.7,2.3s1.1,0.7,2.1,0.7c1.3,0,2.2-0.3,2.8-1s0.9-1.7,0.9-3.1
		v-5.9h1v10.6H205l-0.2-1.5h-0.1c-0.7,1.1-1.9,1.7-3.7,1.7c-2.4,0-3.6-1.3-3.6-3.9v-6.9H198.5z"/>
	<path id="XMLID_51_" class="st0" d="M215.6,90.9c0.4,0,0.9,0,1.4,0.1l-0.2,0.9c-0.4-0.1-0.9-0.2-1.4-0.2c-0.9,0-1.6,0.4-2.2,1.2
		s-0.9,1.7-0.9,2.9v5.9h-1V91.1h0.8l0.1,1.9h0.1c0.4-0.8,0.9-1.3,1.4-1.6S214.9,90.9,215.6,90.9z"/>
	<path id="XMLID_53_" class="st0" d="M225.4,101.9c-1.5,0-2.7-0.5-3.6-1.4s-1.3-2.3-1.3-4c0-1.8,0.4-3.1,1.3-4.1s2.1-1.5,3.7-1.5
		c0.9,0,1.8,0.2,2.6,0.5l-0.3,0.9c-0.9-0.3-1.7-0.5-2.4-0.5c-1.3,0-2.3,0.4-3,1.2s-1,2-1,3.5c0,1.4,0.3,2.6,1,3.4s1.6,1.2,2.8,1.2
		c1,0,1.9-0.2,2.7-0.5v0.9C227.4,101.8,226.5,101.9,225.4,101.9z"/>
	<path id="XMLID_55_" class="st0" d="M237,101.9c-1.5,0-2.7-0.5-3.6-1.4s-1.3-2.3-1.3-4c0-1.7,0.4-3,1.2-4.1s2-1.5,3.4-1.5
		c1.2,0,2.2,0.4,3,1.3s1.1,2.1,1.1,3.6v0.8h-7.6c0,1.5,0.4,2.6,1,3.3s1.6,1.2,2.9,1.2c0.6,0,1.1,0,1.6-0.1s1-0.3,1.7-0.5v0.9
		c-0.6,0.3-1.2,0.4-1.7,0.5S237.6,101.9,237,101.9z M236.7,91.8c-1,0-1.8,0.3-2.5,1s-1,1.6-1.1,2.9h6.6c0-1.2-0.3-2.2-0.8-2.9
		S237.7,91.8,236.7,91.8z"/>
	<path id="XMLID_58_" class="st0" d="M257.1,101.9c-1.5,0-2.7-0.5-3.6-1.4s-1.3-2.3-1.3-4c0-1.8,0.4-3.1,1.3-4.1s2.1-1.5,3.7-1.5
		c0.9,0,1.8,0.2,2.6,0.5l-0.3,0.9c-0.9-0.3-1.7-0.5-2.4-0.5c-1.3,0-2.3,0.4-3,1.2s-1,2-1,3.5c0,1.4,0.3,2.6,1,3.4s1.6,1.2,2.8,1.2
		c1,0,1.9-0.2,2.7-0.5v0.9C259.1,101.8,258.2,101.9,257.1,101.9z"/>
	<path id="XMLID_60_" class="st0" d="M265.3,101.7h-1V86.5h1V101.7z"/>
	<path id="XMLID_62_" class="st0" d="M279.7,96.4c0,1.7-0.4,3.1-1.3,4.1s-2,1.5-3.5,1.5c-0.9,0-1.8-0.2-2.5-0.7s-1.3-1.1-1.6-1.9
		s-0.6-1.8-0.6-2.9c0-1.7,0.4-3.1,1.3-4s2-1.5,3.5-1.5c1.5,0,2.6,0.5,3.4,1.5S279.7,94.7,279.7,96.4z M271.3,96.4
		c0,1.5,0.3,2.6,1,3.4s1.5,1.2,2.7,1.2s2.1-0.4,2.7-1.2s1-2,1-3.4c0-1.5-0.3-2.6-1-3.4s-1.6-1.2-2.7-1.2s-2.1,0.4-2.7,1.2
		S271.3,94.9,271.3,96.4z"/>
	<path id="XMLID_65_" class="st0" d="M285.5,91.1V98c0,1.1,0.2,1.8,0.7,2.3s1.1,0.7,2.1,0.7c1.3,0,2.2-0.3,2.8-1s0.9-1.7,0.9-3.1
		v-5.9h1v10.6H292l-0.2-1.5h-0.1c-0.7,1.1-1.9,1.7-3.7,1.7c-2.4,0-3.6-1.3-3.6-3.9v-6.9H285.5z"/>
	<path id="XMLID_67_" class="st0" d="M302.3,90.9c0.8,0,1.4,0.1,2,0.4s1.1,0.8,1.5,1.4h0.1c0-0.8-0.1-1.6-0.1-2.4v-3.8h1v15.2h-0.6
		l-0.2-1.6h-0.1c-0.8,1.2-2,1.8-3.5,1.8c-1.5,0-2.6-0.5-3.4-1.4s-1.2-2.2-1.2-4c0-1.8,0.4-3.2,1.2-4.2S300.8,90.9,302.3,90.9z
		 M302.3,91.8c-1.2,0-2,0.4-2.6,1.2s-0.9,2-0.9,3.5c0,3,1.2,4.5,3.5,4.5c1.2,0,2.1-0.3,2.6-1s0.8-1.8,0.8-3.4v-0.2
		c0-1.6-0.3-2.8-0.8-3.5S303.5,91.8,302.3,91.8z"/>
	<path id="XMLID_70_" class="st0" d="M323.8,101.9c-1.5,0-2.7-0.5-3.6-1.4s-1.3-2.3-1.3-4c0-1.8,0.4-3.1,1.3-4.1s2.1-1.5,3.7-1.5
		c0.9,0,1.8,0.2,2.6,0.5l-0.3,0.9c-0.9-0.3-1.7-0.5-2.4-0.5c-1.3,0-2.3,0.4-3,1.2s-1,2-1,3.5c0,1.4,0.3,2.6,1,3.4s1.6,1.2,2.8,1.2
		c1,0,1.9-0.2,2.7-0.5v0.9C325.7,101.8,324.9,101.9,323.8,101.9z"/>
	<path id="XMLID_72_" class="st0" d="M337.5,101.7l-0.2-1.7h-0.1c-0.5,0.7-1.1,1.2-1.6,1.5s-1.2,0.4-2,0.4c-1,0-1.9-0.3-2.4-0.8
		s-0.9-1.3-0.9-2.2c0-1,0.4-1.8,1.3-2.4s2.1-0.9,3.7-0.9l2-0.1v-0.7c0-1-0.2-1.8-0.6-2.3s-1.1-0.8-2-0.8c-1,0-2,0.3-3.1,0.8
		l-0.4-0.8c1.2-0.5,2.3-0.8,3.5-0.8c1.2,0,2,0.3,2.6,0.9s0.9,1.5,0.9,2.8v7.1H337.5z M333.6,101.1c1.1,0,2-0.3,2.7-1s1-1.5,1-2.7v-1
		l-1.9,0.1c-1.5,0.1-2.6,0.3-3.2,0.7s-1,1-1,1.8c0,0.7,0.2,1.2,0.6,1.5S332.8,101.1,333.6,101.1z"/>
	<path id="XMLID_75_" class="st0" d="M356.9,101.7v-7c0-1-0.2-1.8-0.6-2.3s-1-0.7-1.9-0.7c-1.1,0-1.9,0.3-2.4,0.9s-0.8,1.5-0.8,2.8
		v6.2h-1v-7.3c0-1.8-0.8-2.7-2.5-2.7c-1.1,0-1.9,0.3-2.4,1s-0.8,1.7-0.8,3.1v5.9h-1V91.1h0.8l0.2,1.5h0.1c0.3-0.5,0.7-0.9,1.2-1.2
		s1.1-0.4,1.8-0.4c1.7,0,2.7,0.6,3.2,1.9h0c0.3-0.6,0.8-1.1,1.4-1.4s1.2-0.5,2-0.5c1.2,0,2,0.3,2.6,0.9s0.9,1.6,0.9,2.9v6.9H356.9z"
		/>
	<path id="XMLID_77_" class="st0" d="M367.6,101.9c-1.5,0-2.7-0.5-3.6-1.4s-1.3-2.3-1.3-4c0-1.7,0.4-3,1.2-4.1s2-1.5,3.4-1.5
		c1.2,0,2.2,0.4,3,1.3s1.1,2.1,1.1,3.6v0.8h-7.6c0,1.5,0.4,2.6,1,3.3s1.6,1.2,2.9,1.2c0.6,0,1.1,0,1.6-0.1s1-0.3,1.7-0.5v0.9
		c-0.6,0.3-1.2,0.4-1.7,0.5S368.2,101.9,367.6,101.9z M367.3,91.8c-1,0-1.8,0.3-2.5,1s-1,1.6-1.1,2.9h6.6c0-1.2-0.3-2.2-0.8-2.9
		S368.2,91.8,367.3,91.8z"/>
	<path id="XMLID_80_" class="st0" d="M380.4,90.9c0.4,0,0.9,0,1.4,0.1l-0.2,0.9c-0.4-0.1-0.9-0.2-1.4-0.2c-0.9,0-1.6,0.4-2.2,1.2
		s-0.9,1.7-0.9,2.9v5.9h-1V91.1h0.8l0.1,1.9h0.1c0.4-0.8,0.9-1.3,1.4-1.6S379.7,90.9,380.4,90.9z"/>
	<path id="XMLID_82_" class="st0" d="M392.5,101.7l-0.2-1.7h-0.1c-0.5,0.7-1.1,1.2-1.6,1.5s-1.2,0.4-2,0.4c-1,0-1.9-0.3-2.4-0.8
		s-0.9-1.3-0.9-2.2c0-1,0.4-1.8,1.3-2.4s2.1-0.9,3.7-0.9l2-0.1v-0.7c0-1-0.2-1.8-0.6-2.3s-1.1-0.8-2-0.8c-1,0-2,0.3-3.1,0.8
		l-0.4-0.8c1.2-0.5,2.3-0.8,3.5-0.8c1.2,0,2,0.3,2.6,0.9s0.9,1.5,0.9,2.8v7.1H392.5z M388.6,101.1c1.1,0,2-0.3,2.7-1s1-1.5,1-2.7v-1
		l-1.9,0.1c-1.5,0.1-2.6,0.3-3.2,0.7s-1,1-1,1.8c0,0.7,0.2,1.2,0.6,1.5S387.8,101.1,388.6,101.1z"/>
</g>
</svg>
