<?xml version="1.0" encoding="utf-8"?>
<!-- Generator: Adobe Illustrator 19.0.0, SVG Export Plug-In . SVG Version: 6.00 Build 0)  -->
<svg version="1.1" id="Layer_1" xmlns="http://www.w3.org/2000/svg" xmlns:xlink="http://www.w3.org/1999/xlink" x="0px" y="0px"
	 viewBox="0 0 200 58.7" style="enable-background:new 0 0 200 58.7;" xml:space="preserve">
<style type="text/css">
	.st0{fill:#4B4345;}
	.st1{font-family:'Seravek';}
	.st2{font-size:45px;}
	.st3{fill:#FB6542;}
	.st4{font-family:'OpenSans-Light';}
	.st5{font-size:10px;}
	.st6{letter-spacing:1;}
</style>
<text id="XMLID_1_" transform="matrix(1 0 0 1 46.7739 39.039)" class="st0 st1 st2">PIGEON</text>
<g id="XMLID_6_">
	<path id="XMLID_8_" class="st3" d="M43.7,47.1l-3.2-28.6C40.4,8.3,32.1,0,21.8,0S3.3,8.3,3.2,18.5L0,47.1c-0.1,0.5,0.1,1,0.4,1.3
		c0.3,0.3,0.8,0.5,1.3,0.5c0,0,3.3-0.2,6.3-0.2c2.1,0,3.1,0.1,3.7,0.2c2.5,0.5,7.5,3.7,9.2,4.9c0.3,0.2,0.6,0.3,0.9,0.3
		c0.3,0,0.7-0.1,0.9-0.3c1.6-1.2,6.4-4.3,8.9-4.8c0.6-0.1,1.8-0.2,4.3-0.2c2.9,0,5.9,0.2,5.9,0.2c0.5,0,0.9-0.2,1.3-0.5
		C43.6,48.1,43.7,47.6,43.7,47.1z M36,45.5c-2.3,0-3.9,0.1-4.9,0.3c-2.9,0.6-7.3,3.4-9.3,4.7c-2-1.3-6.6-4.2-9.5-4.8
		c-0.9-0.2-2.3-0.3-4.2-0.3c-1.6,0-3.3,0.1-4.6,0.1l3-26.8c0-0.1,0-0.1,0-0.2c0-8.5,6.9-15.3,15.3-15.3c8.5,0,15.3,6.9,15.3,15.3
		c0,0.1,0,0.1,0,0.2l3,26.8C39.1,45.5,37.5,45.5,36,45.5z"/>
	<circle id="XMLID_14_" class="st3" cx="12.1" cy="17.7" r="2.9"/>
	<circle id="XMLID_13_" class="st3" cx="31.6" cy="17.7" r="2.9"/>
	<path id="XMLID_3_" class="st3" d="M21.8,40.7l7.2-18.8H14.6L21.8,40.7z M21.8,31.6l-2.5-6.5h5L21.8,31.6z"/>
</g>
<g id="XMLID_4_">
	<g id="XMLID_30_">
		<path id="XMLID_31_" class="st0" d="M145.3,20.4c-0.5,0-1-0.4-1-1c0-2.2,1.8-4,3.9-4c0.5,0,1,0.4,1,1c0,0.5-0.4,1-1,1
			c-1.1,0-2,0.9-2,2C146.3,19.9,145.8,20.4,145.3,20.4z"/>
	</g>
</g>
<text id="XMLID_2_" transform="matrix(1 0 0 1 51.6535 50.0606)" class="st0 st4 st5 st6">open-source cloud camera</text>
</svg>
