<?xml version="1.0" encoding="utf-8"?>
<!-- Generator: Adobe Illustrator 19.0.0, SVG Export Plug-In . SVG Version: 6.00 Build 0)  -->
<svg version="1.1" id="Layer_1" xmlns="http://www.w3.org/2000/svg" xmlns:xlink="http://www.w3.org/1999/xlink" x="0px" y="0px"
	 viewBox="0 0 200 58.7" style="enable-background:new 0 0 200 58.7;" xml:space="preserve">
<style type="text/css">
	.st0{fill:#4B4345;}
	.st1{font-family:'Seravek';}
	.st2{font-size:45px;}
	.st3{fill:#FB6542;}
</style>
<g id="XMLID_2_">
	<text id="XMLID_1_" transform="matrix(1 0 0 1 46.7739 39.039)" class="st0 st1 st2">PIGEON</text>
	<g id="XMLID_6_">
		<path id="XMLID_8_" class="st3" d="M43.7,47.1l-3.2-28.6C40.4,8.3,32.1,0,21.8,0S3.3,8.3,3.2,18.5L0,47.1c-0.1,0.5,0.1,1,0.4,1.3
			c0.3,0.3,0.8,0.5,1.3,0.5c0,0,3.3-0.2,6.3-0.2c2.1,0,3.1,0.1,3.7,0.2c2.5,0.5,7.5,3.7,9.2,4.9c0.3,0.2,0.6,0.3,0.9,0.3
			c0.3,0,0.7-0.1,0.9-0.3c1.6-1.2,6.4-4.3,8.9-4.8c0.6-0.1,1.8-0.2,4.3-0.2c2.9,0,5.9,0.2,5.9,0.2c0.5,0,0.9-0.2,1.3-0.5
			C43.6,48.1,43.7,47.6,43.7,47.1z M36,45.5c-2.3,0-3.9,0.1-4.9,0.3c-2.9,0.6-7.3,3.4-9.3,4.7c-2-1.3-6.6-4.2-9.5-4.8
			c-0.9-0.2-2.3-0.3-4.2-0.3c-1.6,0-3.3,0.1-4.6,0.1l3-26.8c0-0.1,0-0.1,0-0.2c0-8.5,6.9-15.3,15.3-15.3c8.5,0,15.3,6.9,15.3,15.3
			c0,0.1,0,0.1,0,0.2l3,26.8C39.1,45.5,37.5,45.5,36,45.5z"/>
		<circle id="XMLID_14_" class="st3" cx="12.1" cy="17.7" r="2.9"/>
		<circle id="XMLID_13_" class="st3" cx="31.6" cy="17.7" r="2.9"/>
		<path id="XMLID_3_" class="st3" d="M21.8,40.7l7.2-18.8H14.6L21.8,40.7z M21.8,31.6l-2.5-6.5h5L21.8,31.6z"/>
	</g>
	<g id="XMLID_4_">
		<g id="XMLID_30_">
			<path id="XMLID_31_" class="st0" d="M145.3,20.4c-0.5,0-1-0.4-1-1c0-2.2,1.8-4,3.9-4c0.5,0,1,0.4,1,1c0,0.5-0.4,1-1,1
				c-1.1,0-2,0.9-2,2C146.3,19.9,145.8,20.4,145.3,20.4z"/>
		</g>
	</g>
	<g id="XMLID_7_">
		<path id="XMLID_9_" class="st0" d="M56.9,47.4c0,0.9-0.2,1.5-0.6,2s-1,0.7-1.7,0.7c-0.5,0-0.9-0.1-1.2-0.3s-0.6-0.5-0.8-1
			s-0.3-0.9-0.3-1.5c0-0.9,0.2-1.5,0.6-2s1-0.7,1.7-0.7c0.7,0,1.3,0.2,1.7,0.7S56.9,46.5,56.9,47.4z M52.7,47.4
			c0,0.7,0.2,1.3,0.5,1.7s0.8,0.6,1.4,0.6s1-0.2,1.4-0.6s0.5-1,0.5-1.7c0-0.7-0.2-1.3-0.5-1.7s-0.8-0.6-1.4-0.6s-1,0.2-1.4,0.6
			S52.7,46.7,52.7,47.4z"/>
		<path id="XMLID_18_" class="st0" d="M61.7,50.2c-0.8,0-1.4-0.3-1.8-0.9h0l0,0.4c0,0.2,0,0.5,0,0.8v2h-0.5v-7.7h0.4l0.1,0.8h0
			c0.4-0.6,0.9-0.9,1.7-0.9c0.7,0,1.3,0.2,1.6,0.7s0.6,1.2,0.6,2.1c0,0.9-0.2,1.5-0.6,2S62.4,50.2,61.7,50.2z M61.7,49.7
			c0.5,0,1-0.2,1.3-0.6s0.4-1,0.4-1.7c0-1.6-0.6-2.3-1.7-2.3c-0.6,0-1.1,0.2-1.4,0.5s-0.4,0.9-0.4,1.7v0.2c0,0.8,0.1,1.4,0.4,1.8
			S61,49.7,61.7,49.7z"/>
		<path id="XMLID_21_" class="st0" d="M68.5,50.2c-0.8,0-1.4-0.2-1.8-0.7s-0.6-1.1-0.6-2c0-0.8,0.2-1.5,0.6-2s1-0.8,1.7-0.8
			c0.6,0,1.1,0.2,1.5,0.7s0.5,1,0.5,1.8v0.4h-3.8c0,0.7,0.2,1.3,0.5,1.7s0.8,0.6,1.4,0.6c0.3,0,0.6,0,0.8-0.1s0.5-0.1,0.9-0.3v0.4
			c-0.3,0.1-0.6,0.2-0.8,0.3S68.8,50.2,68.5,50.2z M68.4,45.1c-0.5,0-0.9,0.2-1.2,0.5s-0.5,0.8-0.5,1.5h3.3c0-0.6-0.1-1.1-0.4-1.4
			S68.8,45.1,68.4,45.1z"/>
		<path id="XMLID_24_" class="st0" d="M76.5,50.1v-3.4c0-0.5-0.1-0.9-0.3-1.2s-0.6-0.4-1-0.4c-0.6,0-1.1,0.2-1.4,0.5
			s-0.4,0.8-0.4,1.6v2.9h-0.5v-5.3h0.4l0.1,0.7h0c0.3-0.6,1-0.8,1.8-0.8c1.2,0,1.8,0.6,1.8,1.9v3.5H76.5z"/>
		<path id="XMLID_26_" class="st0" d="M79.3,47.6v-0.4h2.3v0.4H79.3z"/>
		<path id="XMLID_29_" class="st0" d="M87.2,48.7c0,0.5-0.2,0.8-0.5,1.1s-0.9,0.4-1.5,0.4c-0.7,0-1.3-0.1-1.7-0.3v-0.5
			c0.5,0.3,1.1,0.4,1.7,0.4c0.5,0,0.9-0.1,1.2-0.3s0.4-0.4,0.4-0.7c0-0.3-0.1-0.5-0.3-0.7s-0.6-0.4-1.1-0.5
			c-0.5-0.2-0.9-0.4-1.1-0.5s-0.4-0.3-0.5-0.5s-0.2-0.4-0.2-0.6c0-0.4,0.2-0.7,0.5-0.9s0.8-0.3,1.4-0.3c0.6,0,1.1,0.1,1.6,0.3
			L87,45.4c-0.5-0.2-1-0.3-1.5-0.3c-0.4,0-0.8,0.1-1,0.2s-0.4,0.3-0.4,0.6c0,0.3,0.1,0.5,0.3,0.7s0.6,0.4,1.2,0.6
			c0.5,0.2,0.8,0.3,1,0.5s0.4,0.3,0.5,0.5S87.2,48.4,87.2,48.7z"/>
		<path id="XMLID_33_" class="st0" d="M94,47.4c0,0.9-0.2,1.5-0.6,2s-1,0.7-1.7,0.7c-0.5,0-0.9-0.1-1.2-0.3s-0.6-0.5-0.8-1
			s-0.3-0.9-0.3-1.5c0-0.9,0.2-1.5,0.6-2s1-0.7,1.7-0.7c0.7,0,1.3,0.2,1.7,0.7S94,46.5,94,47.4z M89.8,47.4c0,0.7,0.2,1.3,0.5,1.7
			s0.8,0.6,1.4,0.6s1-0.2,1.4-0.6s0.5-1,0.5-1.7c0-0.7-0.2-1.3-0.5-1.7s-0.8-0.6-1.4-0.6s-1,0.2-1.4,0.6S89.8,46.7,89.8,47.4z"/>
		<path id="XMLID_36_" class="st0" d="M96.9,44.8v3.4c0,0.5,0.1,0.9,0.3,1.2s0.6,0.4,1,0.4c0.6,0,1.1-0.2,1.4-0.5s0.4-0.8,0.4-1.6
			v-2.9h0.5v5.3h-0.4l-0.1-0.7h0c-0.3,0.6-1,0.8-1.8,0.8c-1.2,0-1.8-0.6-1.8-1.9v-3.5H96.9z"/>
		<path id="XMLID_38_" class="st0" d="M105.5,44.7c0.2,0,0.5,0,0.7,0.1l-0.1,0.5c-0.2-0.1-0.5-0.1-0.7-0.1c-0.5,0-0.8,0.2-1.1,0.6
			s-0.4,0.9-0.4,1.5v2.9h-0.5v-5.3h0.4l0,1h0c0.2-0.4,0.5-0.7,0.7-0.8S105.1,44.7,105.5,44.7z"/>
		<path id="XMLID_40_" class="st0" d="M110.4,50.2c-0.8,0-1.4-0.2-1.8-0.7s-0.6-1.1-0.6-2c0-0.9,0.2-1.6,0.7-2.1s1.1-0.7,1.8-0.7
			c0.5,0,0.9,0.1,1.3,0.2l-0.1,0.4c-0.5-0.2-0.9-0.2-1.2-0.2c-0.7,0-1.1,0.2-1.5,0.6s-0.5,1-0.5,1.7c0,0.7,0.2,1.3,0.5,1.7
			s0.8,0.6,1.4,0.6c0.5,0,0.9-0.1,1.3-0.3v0.4C111.4,50.1,110.9,50.2,110.4,50.2z"/>
		<path id="XMLID_42_" class="st0" d="M116.2,50.2c-0.8,0-1.4-0.2-1.8-0.7s-0.6-1.1-0.6-2c0-0.8,0.2-1.5,0.6-2s1-0.8,1.7-0.8
			c0.6,0,1.1,0.2,1.5,0.7s0.5,1,0.5,1.8v0.4h-3.8c0,0.7,0.2,1.3,0.5,1.7s0.8,0.6,1.4,0.6c0.3,0,0.6,0,0.8-0.1s0.5-0.1,0.9-0.3v0.4
			c-0.3,0.1-0.6,0.2-0.8,0.3S116.5,50.2,116.2,50.2z M116,45.1c-0.5,0-0.9,0.2-1.2,0.5s-0.5,0.8-0.5,1.5h3.3c0-0.6-0.1-1.1-0.4-1.4
			S116.5,45.1,116,45.1z"/>
		<path id="XMLID_45_" class="st0" d="M126.2,50.2c-0.8,0-1.4-0.2-1.8-0.7s-0.6-1.1-0.6-2c0-0.9,0.2-1.6,0.7-2.1s1.1-0.7,1.8-0.7
			c0.5,0,0.9,0.1,1.3,0.2l-0.1,0.4c-0.5-0.2-0.9-0.2-1.2-0.2c-0.7,0-1.1,0.2-1.5,0.6s-0.5,1-0.5,1.7c0,0.7,0.2,1.3,0.5,1.7
			s0.8,0.6,1.4,0.6c0.5,0,0.9-0.1,1.3-0.3v0.4C127.2,50.1,126.8,50.2,126.2,50.2z"/>
		<path id="XMLID_47_" class="st0" d="M130.3,50.1h-0.5v-7.6h0.5V50.1z"/>
		<path id="XMLID_49_" class="st0" d="M137.5,47.4c0,0.9-0.2,1.5-0.6,2s-1,0.7-1.7,0.7c-0.5,0-0.9-0.1-1.2-0.3s-0.6-0.5-0.8-1
			s-0.3-0.9-0.3-1.5c0-0.9,0.2-1.5,0.6-2s1-0.7,1.7-0.7c0.7,0,1.3,0.2,1.7,0.7S137.5,46.5,137.5,47.4z M133.3,47.4
			c0,0.7,0.2,1.3,0.5,1.7s0.8,0.6,1.4,0.6s1-0.2,1.4-0.6s0.5-1,0.5-1.7c0-0.7-0.2-1.3-0.5-1.7s-0.8-0.6-1.4-0.6s-1,0.2-1.4,0.6
			S133.3,46.7,133.3,47.4z"/>
		<path id="XMLID_52_" class="st0" d="M140.4,44.8v3.4c0,0.5,0.1,0.9,0.3,1.2s0.6,0.4,1,0.4c0.6,0,1.1-0.2,1.4-0.5s0.4-0.8,0.4-1.6
			v-2.9h0.5v5.3h-0.4l-0.1-0.7h0c-0.3,0.6-1,0.8-1.8,0.8c-1.2,0-1.8-0.6-1.8-1.9v-3.5H140.4z"/>
		<path id="XMLID_54_" class="st0" d="M148.8,44.7c0.4,0,0.7,0.1,1,0.2s0.5,0.4,0.8,0.7h0c0-0.4,0-0.8,0-1.2v-1.9h0.5v7.6h-0.3
			l-0.1-0.8h0c-0.4,0.6-1,0.9-1.7,0.9c-0.7,0-1.3-0.2-1.7-0.7s-0.6-1.1-0.6-2c0-0.9,0.2-1.6,0.6-2.1S148.1,44.7,148.8,44.7z
			 M148.8,45.1c-0.6,0-1,0.2-1.3,0.6s-0.4,1-0.4,1.8c0,1.5,0.6,2.3,1.8,2.3c0.6,0,1-0.2,1.3-0.5s0.4-0.9,0.4-1.7v-0.1
			c0-0.8-0.1-1.4-0.4-1.8S149.4,45.1,148.8,45.1z"/>
		<path id="XMLID_57_" class="st0" d="M159.5,50.2c-0.8,0-1.4-0.2-1.8-0.7s-0.6-1.1-0.6-2c0-0.9,0.2-1.6,0.7-2.1s1.1-0.7,1.8-0.7
			c0.5,0,0.9,0.1,1.3,0.2l-0.1,0.4c-0.5-0.2-0.9-0.2-1.2-0.2c-0.7,0-1.1,0.2-1.5,0.6s-0.5,1-0.5,1.7c0,0.7,0.2,1.3,0.5,1.7
			s0.8,0.6,1.4,0.6c0.5,0,0.9-0.1,1.3-0.3v0.4C160.5,50.1,160.1,50.2,159.5,50.2z"/>
		<path id="XMLID_59_" class="st0" d="M166.4,50.1l-0.1-0.8h0c-0.3,0.3-0.5,0.6-0.8,0.7s-0.6,0.2-1,0.2c-0.5,0-0.9-0.1-1.2-0.4
			s-0.4-0.6-0.4-1.1c0-0.5,0.2-0.9,0.6-1.2s1.1-0.4,1.9-0.5l1,0v-0.4c0-0.5-0.1-0.9-0.3-1.1s-0.5-0.4-1-0.4c-0.5,0-1,0.1-1.5,0.4
			l-0.2-0.4c0.6-0.3,1.2-0.4,1.7-0.4c0.6,0,1,0.2,1.3,0.5s0.4,0.8,0.4,1.4v3.5H166.4z M164.4,49.7c0.6,0,1-0.2,1.3-0.5
			c0.3-0.3,0.5-0.8,0.5-1.4v-0.5l-0.9,0c-0.7,0-1.3,0.2-1.6,0.3s-0.5,0.5-0.5,0.9c0,0.3,0.1,0.6,0.3,0.8S164.1,49.7,164.4,49.7z"/>
		<path id="XMLID_62_" class="st0" d="M176.1,50.1v-3.5c0-0.5-0.1-0.9-0.3-1.1c-0.2-0.2-0.5-0.4-0.9-0.4c-0.5,0-0.9,0.1-1.2,0.4
			c-0.3,0.3-0.4,0.8-0.4,1.4v3.1h-0.5v-3.6c0-0.9-0.4-1.3-1.2-1.3c-0.6,0-1,0.2-1.2,0.5s-0.4,0.8-0.4,1.6v2.9h-0.5v-5.3h0.4l0.1,0.7
			h0c0.1-0.3,0.4-0.5,0.6-0.6c0.3-0.1,0.6-0.2,0.9-0.2c0.8,0,1.4,0.3,1.6,0.9h0c0.2-0.3,0.4-0.5,0.7-0.7c0.3-0.2,0.6-0.2,1-0.2
			c0.6,0,1,0.2,1.3,0.5c0.3,0.3,0.4,0.8,0.4,1.5v3.5H176.1z"/>
		<path id="XMLID_64_" class="st0" d="M181.4,50.2c-0.8,0-1.4-0.2-1.8-0.7c-0.4-0.5-0.6-1.1-0.6-2c0-0.8,0.2-1.5,0.6-2
			c0.4-0.5,1-0.8,1.7-0.8c0.6,0,1.1,0.2,1.5,0.7s0.5,1,0.5,1.8v0.4h-3.8c0,0.7,0.2,1.3,0.5,1.7c0.3,0.4,0.8,0.6,1.4,0.6
			c0.3,0,0.6,0,0.8-0.1s0.5-0.1,0.9-0.3v0.4c-0.3,0.1-0.6,0.2-0.8,0.3S181.7,50.2,181.4,50.2z M181.3,45.1c-0.5,0-0.9,0.2-1.2,0.5
			c-0.3,0.3-0.5,0.8-0.5,1.5h3.3c0-0.6-0.1-1.1-0.4-1.4C182.1,45.3,181.8,45.1,181.3,45.1z"/>
		<path id="XMLID_67_" class="st0" d="M187.9,44.7c0.2,0,0.5,0,0.7,0.1l-0.1,0.5c-0.2-0.1-0.5-0.1-0.7-0.1c-0.5,0-0.8,0.2-1.1,0.6
			c-0.3,0.4-0.4,0.9-0.4,1.5v2.9h-0.5v-5.3h0.4l0,1h0c0.2-0.4,0.5-0.7,0.7-0.8C187.2,44.7,187.5,44.7,187.9,44.7z"/>
		<path id="XMLID_69_" class="st0" d="M193.9,50.1l-0.1-0.8h0c-0.3,0.3-0.5,0.6-0.8,0.7c-0.3,0.1-0.6,0.2-1,0.2
			c-0.5,0-0.9-0.1-1.2-0.4c-0.3-0.3-0.4-0.6-0.4-1.1c0-0.5,0.2-0.9,0.6-1.2c0.4-0.3,1.1-0.4,1.9-0.5l1,0v-0.4c0-0.5-0.1-0.9-0.3-1.1
			s-0.5-0.4-1-0.4c-0.5,0-1,0.1-1.5,0.4l-0.2-0.4c0.6-0.3,1.2-0.4,1.7-0.4c0.6,0,1,0.2,1.3,0.5s0.4,0.8,0.4,1.4v3.5H193.9z
			 M191.9,49.7c0.6,0,1-0.2,1.3-0.5s0.5-0.8,0.5-1.4v-0.5l-0.9,0c-0.7,0-1.3,0.2-1.6,0.3s-0.5,0.5-0.5,0.9c0,0.3,0.1,0.6,0.3,0.8
			C191.3,49.6,191.6,49.7,191.9,49.7z"/>
	</g>
</g>
</svg>
